<svg width="96" height="25" viewBox="0 0 96 25" fill="none" xmlns="http://www.w3.org/2000/svg">
<path d="M3 3.5V19.5C3 20.0304 3.21071 20.5391 3.58579 20.9142C3.96086 21.2893 4.46957 21.5 5 21.5H21" stroke="#0A0A0A" stroke-width="2" stroke-linecap="round" stroke-linejoin="round"/>
<path d="M19 9.5L14 14.5L10 10.5L7 13.5" stroke="#0A0A0A" stroke-width="2" stroke-linecap="round" stroke-linejoin="round"/>
<path d="M33.0035 18.5V6.95455H40.6478V8.96711H35.4445V11.7182H40.1404V13.7307H35.4445V18.5H33.0035ZM42.2446 18.5V9.84091H44.6462V18.5H42.2446ZM43.451 8.7247C43.094 8.7247 42.7877 8.60631 42.5321 8.36954C42.2803 8.12901 42.1544 7.8415 42.1544 7.50701C42.1544 7.17628 42.2803 6.89253 42.5321 6.65576C42.7877 6.41523 43.094 6.29497 43.451 6.29497C43.8081 6.29497 44.1125 6.41523 44.3643 6.65576C44.6199 6.89253 44.7476 7.17628 44.7476 7.50701C44.7476 7.8415 44.6199 8.12901 44.3643 8.36954C44.1125 8.60631 43.8081 8.7247 43.451 8.7247ZM48.9715 13.494V18.5H46.5699V9.84091H48.8587V11.3687H48.9602C49.1519 10.865 49.4732 10.4667 49.9242 10.1735C50.3752 9.87661 50.922 9.72816 51.5647 9.72816C52.166 9.72816 52.6903 9.8597 53.1375 10.1228C53.5848 10.3859 53.9324 10.7617 54.1805 11.2503C54.4285 11.7351 54.5525 12.3139 54.5525 12.9866V18.5H52.151V13.415C52.1547 12.8851 52.0195 12.4717 51.7451 12.1748C51.4707 11.8741 51.093 11.7238 50.612 11.7238C50.2888 11.7238 50.0031 11.7933 49.7551 11.9324C49.5108 12.0715 49.3191 12.2744 49.1801 12.5412C49.0448 12.8043 48.9752 13.1219 48.9715 13.494ZM60.5832 18.5H56.4904V6.95455H60.617C61.7783 6.95455 62.778 7.18568 63.6161 7.64795C64.4542 8.10646 65.0988 8.76604 65.5497 9.62669C66.0045 10.4873 66.2319 11.5171 66.2319 12.716C66.2319 13.9186 66.0045 14.9522 65.5497 15.8166C65.0988 16.681 64.4505 17.3443 63.6048 17.8066C62.763 18.2689 61.7558 18.5 60.5832 18.5ZM58.9314 16.4085H60.4817C61.2033 16.4085 61.8103 16.2807 62.3026 16.0252C62.7987 15.7658 63.1708 15.3656 63.4188 14.8244C63.6706 14.2794 63.7965 13.5766 63.7965 12.716C63.7965 11.8629 63.6706 11.1657 63.4188 10.6245C63.1708 10.0833 62.8006 9.68494 62.3082 9.42938C61.8159 9.17381 61.2089 9.04603 60.4873 9.04603H58.9314V16.4085ZM70.4642 18.6635C69.9117 18.6635 69.4194 18.5676 68.9872 18.376C68.555 18.1805 68.213 17.893 67.9612 17.5134C67.7131 17.1301 67.5891 16.6528 67.5891 16.0815C67.5891 15.6005 67.6774 15.1965 67.854 14.8695C68.0307 14.5425 68.2712 14.2794 68.5756 14.0803C68.8801 13.8811 69.2258 13.7307 69.6129 13.6293C70.0038 13.5278 70.4134 13.4564 70.8419 13.415C71.3455 13.3624 71.7514 13.3136 72.0596 13.2685C72.3678 13.2196 72.5914 13.1482 72.7304 13.0542C72.8695 12.9603 72.939 12.8212 72.939 12.6371V12.6032C72.939 12.2462 72.8263 11.97 72.6008 11.7745C72.379 11.5791 72.0633 11.4814 71.6537 11.4814C71.2215 11.4814 70.8776 11.5772 70.622 11.7689C70.3665 11.9568 70.1973 12.1936 70.1147 12.4792L67.8935 12.2988C68.0063 11.7727 68.228 11.3179 68.5587 10.9346C68.8895 10.5475 69.316 10.2506 69.8384 10.0439C70.3646 9.83339 70.9734 9.72816 71.665 9.72816C72.146 9.72816 72.6064 9.78453 73.0461 9.89728C73.4896 10.01 73.8823 10.1848 74.2243 10.4216C74.5701 10.6583 74.8426 10.9628 75.0418 11.3348C75.241 11.7031 75.3406 12.1447 75.3406 12.6596V18.5H73.063V17.2992H72.9954C72.8563 17.5698 72.6703 17.8085 72.4373 18.0152C72.2043 18.2181 71.9243 18.3779 71.5973 18.4944C71.2703 18.6071 70.8926 18.6635 70.4642 18.6635ZM71.1519 17.0061C71.5052 17.0061 71.8172 16.9366 72.0878 16.7975C72.3584 16.6547 72.5707 16.463 72.7248 16.2225C72.8789 15.9819 72.9559 15.7095 72.9559 15.4051V14.4862C72.8808 14.535 72.7774 14.5801 72.6459 14.6214C72.5181 14.659 72.3734 14.6947 72.2118 14.7286C72.0502 14.7586 71.8886 14.7868 71.727 14.8131C71.5654 14.8357 71.4188 14.8563 71.2872 14.8751C71.0054 14.9165 70.7592 14.9822 70.5487 15.0724C70.3383 15.1626 70.1748 15.2848 70.0583 15.4389C69.9418 15.5892 69.8835 15.7771 69.8835 16.0026C69.8835 16.3296 70.0019 16.5795 70.2387 16.7524C70.4792 16.9215 70.7836 17.0061 71.1519 17.0061ZM84.4084 12.3101L82.2098 12.4454C82.1722 12.2575 82.0914 12.0884 81.9674 11.938C81.8433 11.7839 81.6798 11.6618 81.4769 11.5716C81.2777 11.4776 81.0391 11.4307 80.7609 11.4307C80.3889 11.4307 80.0751 11.5096 79.8195 11.6674C79.5639 11.8215 79.4361 12.0282 79.4361 12.2876C79.4361 12.4943 79.5188 12.669 79.6842 12.8118C79.8496 12.9546 80.1333 13.0693 80.5354 13.1557L82.1027 13.4714C82.9445 13.6443 83.5721 13.9224 83.9856 14.3058C84.399 14.6891 84.6057 15.1927 84.6057 15.8166C84.6057 16.3841 84.4384 16.8821 84.1039 17.3105C83.7732 17.7389 83.3185 18.0734 82.7397 18.314C82.1647 18.5507 81.5013 18.6691 80.7497 18.6691C79.6034 18.6691 78.6901 18.4305 78.0099 17.9532C77.3334 17.4721 76.9369 16.8182 76.8204 15.9913L79.1825 15.8673C79.2539 16.2168 79.4268 16.4837 79.7011 16.6678C79.9755 16.8482 80.3269 16.9384 80.7553 16.9384C81.1762 16.9384 81.5145 16.8576 81.77 16.696C82.0294 16.5307 82.1609 16.3183 82.1647 16.059C82.1609 15.841 82.0688 15.6625 81.8884 15.5234C81.708 15.3806 81.4299 15.2716 81.0541 15.1965L79.5545 14.8977C78.7089 14.7286 78.0794 14.4354 77.666 14.0182C77.2563 13.6011 77.0515 13.0693 77.0515 12.4229C77.0515 11.8666 77.2018 11.3874 77.5025 10.9853C77.8069 10.5832 78.2335 10.2731 78.7822 10.0551C79.3347 9.83715 79.9811 9.72816 80.7215 9.72816C81.8151 9.72816 82.6758 9.95929 83.3034 10.4216C83.9348 10.8838 84.3031 11.5133 84.4084 12.3101ZM88.5195 13.494V18.5H86.1179V6.95455H88.4518V11.3687H88.5533C88.7487 10.8575 89.0644 10.4573 89.5004 10.1679C89.9363 9.87473 90.4832 9.72816 91.1409 9.72816C91.7422 9.72816 92.2665 9.8597 92.7137 10.1228C93.1647 10.3821 93.5142 10.7561 93.7623 11.2446C94.0141 11.7294 94.1381 12.3101 94.1343 12.9866V18.5H91.7328V13.415C91.7365 12.8814 91.6012 12.4661 91.3269 12.1692C91.0563 11.8723 90.6767 11.7238 90.1881 11.7238C89.8612 11.7238 89.5718 11.7933 89.32 11.9324C89.0719 12.0715 88.8765 12.2744 88.7337 12.5412C88.5946 12.8043 88.5232 13.1219 88.5195 13.494Z" fill="#0A0A0A"/>
</svg>
