<svg width="96" height="24" viewBox="0 0 96 24" fill="none" xmlns="http://www.w3.org/2000/svg">
<path d="M3 3V19C3 19.5304 3.21071 20.0391 3.58579 20.4142C3.96086 20.7893 4.46957 21 5 21H21" stroke="#E5E5E5" stroke-width="2" stroke-linecap="round" stroke-linejoin="round"/>
<path d="M19 9L14 14L10 10L7 13" stroke="#E5E5E5" stroke-width="2" stroke-linecap="round" stroke-linejoin="round"/>
<path d="M33.0035 18V6.45455H40.6478V8.46711H35.4445V11.2182H40.1404V13.2307H35.4445V18H33.0035ZM42.2446 18V9.34091H44.6462V18H42.2446ZM43.451 8.2247C43.094 8.2247 42.7877 8.10631 42.5321 7.86954C42.2803 7.62901 42.1544 7.3415 42.1544 7.00701C42.1544 6.67628 42.2803 6.39253 42.5321 6.15576C42.7877 5.91523 43.094 5.79497 43.451 5.79497C43.8081 5.79497 44.1125 5.91523 44.3643 6.15576C44.6199 6.39253 44.7476 6.67628 44.7476 7.00701C44.7476 7.3415 44.6199 7.62901 44.3643 7.86954C44.1125 8.10631 43.8081 8.2247 43.451 8.2247ZM48.9715 12.994V18H46.5699V9.34091H48.8587V10.8687H48.9602C49.1519 10.365 49.4732 9.96666 49.9242 9.67352C50.3752 9.37661 50.922 9.22816 51.5647 9.22816C52.166 9.22816 52.6903 9.3597 53.1375 9.62278C53.5848 9.88586 53.9324 10.2617 54.1805 10.7503C54.4285 11.2351 54.5525 11.8139 54.5525 12.4866V18H52.151V12.915C52.1547 12.3851 52.0195 11.9717 51.7451 11.6748C51.4707 11.3741 51.093 11.2238 50.612 11.2238C50.2888 11.2238 50.0031 11.2933 49.7551 11.4324C49.5108 11.5715 49.3191 11.7744 49.1801 12.0412C49.0448 12.3043 48.9752 12.6219 48.9715 12.994ZM60.5832 18H56.4904V6.45455H60.617C61.7783 6.45455 62.778 6.68568 63.6161 7.14795C64.4542 7.60646 65.0988 8.26604 65.5497 9.12669C66.0045 9.98733 66.2319 11.0171 66.2319 12.216C66.2319 13.4186 66.0045 14.4522 65.5497 15.3166C65.0988 16.181 64.4505 16.8443 63.6048 17.3066C62.763 17.7689 61.7558 18 60.5832 18ZM58.9314 15.9085H60.4817C61.2033 15.9085 61.8103 15.7807 62.3026 15.5252C62.7987 15.2658 63.1708 14.8656 63.4188 14.3244C63.6706 13.7794 63.7965 13.0766 63.7965 12.216C63.7965 11.3629 63.6706 10.6657 63.4188 10.1245C63.1708 9.58332 62.8006 9.18494 62.3082 8.92938C61.8159 8.67381 61.2089 8.54603 60.4873 8.54603H58.9314V15.9085ZM70.4642 18.1635C69.9117 18.1635 69.4194 18.0676 68.9872 17.876C68.555 17.6805 68.213 17.393 67.9612 17.0134C67.7131 16.6301 67.5891 16.1528 67.5891 15.5815C67.5891 15.1005 67.6774 14.6965 67.854 14.3695C68.0307 14.0425 68.2712 13.7794 68.5756 13.5803C68.8801 13.3811 69.2258 13.2307 69.6129 13.1293C70.0038 13.0278 70.4134 12.9564 70.8419 12.915C71.3455 12.8624 71.7514 12.8136 72.0596 12.7685C72.3678 12.7196 72.5914 12.6482 72.7304 12.5542C72.8695 12.4603 72.939 12.3212 72.939 12.1371V12.1032C72.939 11.7462 72.8263 11.47 72.6008 11.2745C72.379 11.0791 72.0633 10.9814 71.6537 10.9814C71.2215 10.9814 70.8776 11.0772 70.622 11.2689C70.3665 11.4568 70.1973 11.6936 70.1147 11.9792L67.8935 11.7988C68.0063 11.2727 68.228 10.8179 68.5587 10.4346C68.8895 10.0475 69.316 9.75056 69.8384 9.54386C70.3646 9.33339 70.9734 9.22816 71.665 9.22816C72.146 9.22816 72.6064 9.28453 73.0461 9.39728C73.4896 9.51003 73.8823 9.68479 74.2243 9.92156C74.5701 10.1583 74.8426 10.4628 75.0418 10.8348C75.241 11.2031 75.3406 11.6447 75.3406 12.1596V18H73.063V16.7992H72.9954C72.8563 17.0698 72.6703 17.3085 72.4373 17.5152C72.2043 17.7181 71.9243 17.8779 71.5973 17.9944C71.2703 18.1071 70.8926 18.1635 70.4642 18.1635ZM71.1519 16.5061C71.5052 16.5061 71.8172 16.4366 72.0878 16.2975C72.3584 16.1547 72.5707 15.963 72.7248 15.7225C72.8789 15.4819 72.9559 15.2095 72.9559 14.9051V13.9862C72.8808 14.035 72.7774 14.0801 72.6459 14.1214C72.5181 14.159 72.3734 14.1947 72.2118 14.2286C72.0502 14.2586 71.8886 14.2868 71.727 14.3131C71.5654 14.3357 71.4188 14.3563 71.2872 14.3751C71.0054 14.4165 70.7592 14.4822 70.5487 14.5724C70.3383 14.6626 70.1748 14.7848 70.0583 14.9389C69.9418 15.0892 69.8835 15.2771 69.8835 15.5026C69.8835 15.8296 70.0019 16.0795 70.2387 16.2524C70.4792 16.4215 70.7836 16.5061 71.1519 16.5061ZM84.4084 11.8101L82.2098 11.9454C82.1722 11.7575 82.0914 11.5884 81.9674 11.438C81.8433 11.2839 81.6798 11.1618 81.4769 11.0716C81.2777 10.9776 81.0391 10.9307 80.7609 10.9307C80.3889 10.9307 80.0751 11.0096 79.8195 11.1674C79.5639 11.3215 79.4361 11.5282 79.4361 11.7876C79.4361 11.9943 79.5188 12.169 79.6842 12.3118C79.8496 12.4546 80.1333 12.5693 80.5354 12.6557L82.1027 12.9714C82.9445 13.1443 83.5721 13.4224 83.9856 13.8058C84.399 14.1891 84.6057 14.6927 84.6057 15.3166C84.6057 15.8841 84.4384 16.3821 84.1039 16.8105C83.7732 17.2389 83.3185 17.5734 82.7397 17.814C82.1647 18.0507 81.5013 18.1691 80.7497 18.1691C79.6034 18.1691 78.6901 17.9305 78.0099 17.4532C77.3334 16.9721 76.9369 16.3182 76.8204 15.4913L79.1825 15.3673C79.2539 15.7168 79.4268 15.9837 79.7011 16.1678C79.9755 16.3482 80.3269 16.4384 80.7553 16.4384C81.1762 16.4384 81.5145 16.3576 81.77 16.196C82.0294 16.0307 82.1609 15.8183 82.1647 15.559C82.1609 15.341 82.0688 15.1625 81.8884 15.0234C81.708 14.8806 81.4299 14.7716 81.0541 14.6965L79.5545 14.3977C78.7089 14.2286 78.0794 13.9354 77.666 13.5182C77.2563 13.1011 77.0515 12.5693 77.0515 11.9229C77.0515 11.3666 77.2018 10.8874 77.5025 10.4853C77.8069 10.0832 78.2335 9.77311 78.7822 9.55513C79.3347 9.33715 79.9811 9.22816 80.7215 9.22816C81.8151 9.22816 82.6758 9.45929 83.3034 9.92156C83.9348 10.3838 84.3031 11.0133 84.4084 11.8101ZM88.5195 12.994V18H86.1179V6.45455H88.4518V10.8687H88.5533C88.7487 10.3575 89.0644 9.95727 89.5004 9.66788C89.9363 9.37473 90.4832 9.22816 91.1409 9.22816C91.7422 9.22816 92.2665 9.3597 92.7137 9.62278C93.1647 9.8821 93.5142 10.2561 93.7623 10.7446C94.0141 11.2294 94.1381 11.8101 94.1343 12.4866V18H91.7328V12.915C91.7365 12.3814 91.6012 11.9661 91.3269 11.6692C91.0563 11.3723 90.6767 11.2238 90.1881 11.2238C89.8612 11.2238 89.5718 11.2933 89.32 11.4324C89.0719 11.5715 88.8765 11.7744 88.7337 12.0412C88.5946 12.3043 88.5232 12.6219 88.5195 12.994Z" fill="#E5E5E5"/>
</svg>
